<?xml version="1.0" standalone="no"?>
<!DOCTYPE svg PUBLIC "-//W3C//DTD SVG 20010904//EN"
 "http://www.w3.org/TR/2001/REC-SVG-20010904/DTD/svg10.dtd">
<svg version="1.0" xmlns="http://www.w3.org/2000/svg"
 width="300.000000pt" height="300.000000pt" viewBox="0 0 300.000000 300.000000"
 preserveAspectRatio="xMidYMid meet">
<metadata>
Created by potrace 1.10, written by Peter Selinger 2001-2011
</metadata>
<g transform="translate(0.000000,300.000000) scale(0.100000,-0.100000)"
fill="#000000" stroke="none">
<path d="M1045 2554 c-55 -41 -180 -132 -277 -202 l-178 -127 0 -274 0 -273
65 -200 c36 -110 65 -208 65 -216 0 -9 -21 -69 -46 -133 -43 -107 -49 -117
-80 -128 -35 -13 -64 -53 -64 -90 0 -27 45 -78 77 -85 36 -10 81 11 98 45 18
34 18 57 1 88 -12 22 -9 37 40 155 30 72 54 137 54 145 0 7 -31 110 -70 229
l-70 216 0 240 1 241 258 185 259 185 344 -31 344 -32 199 -152 c110 -84 201
-153 203 -154 1 -2 -7 -81 -18 -177 -11 -96 -20 -179 -20 -185 0 -6 -71 -19
-177 -33 -157 -19 -179 -20 -189 -7 -22 30 -63 38 -103 19 -48 -24 -66 -62
-51 -108 24 -73 101 -88 155 -31 32 34 33 34 200 55 92 12 169 20 171 19 6 -7
144 -376 144 -387 0 -6 -40 -41 -89 -78 -101 -75 -95 -62 -107 -231 l-6 -93
-57 6 c-67 8 -182 40 -232 65 -30 16 -36 24 -37 52 -1 24 -10 41 -32 61 -34
31 -58 34 -100 12 -59 -31 -68 -98 -20 -147 27 -27 36 -30 71 -25 32 4 55 -2
112 -28 72 -33 198 -65 257 -65 l31 0 -6 -107 c-4 -60 -8 -114 -10 -120 -3
-10 -59 -13 -232 -13 l-228 0 -43 -85 c-24 -47 -47 -85 -52 -85 -5 0 -29 9
-54 20 -33 14 -46 25 -46 39 0 11 -11 32 -24 48 -33 38 -95 39 -132 2 -42 -43
-34 -118 16 -144 34 -18 60 -19 92 -4 19 8 37 4 101 -25 43 -20 80 -36 82 -36
3 0 27 45 55 100 l50 100 239 0 240 0 5 43 c3 23 12 132 21 242 8 110 18 225
21 256 l6 55 98 75 c55 40 99 78 100 83 0 4 -38 110 -85 234 l-86 226 21 185
c11 102 22 200 25 217 5 30 -1 35 -222 204 l-228 174 -350 33 c-192 18 -361
32 -375 32 -15 0 -64 -30 -125 -75z m785 -813 c20 -38 -13 -71 -51 -51 -21 12
-25 40 -7 58 18 18 46 14 58 -7z m-36 -657 c11 -28 7 -43 -15 -54 -16 -9 -25
-8 -40 6 -10 9 -19 22 -19 29 0 32 63 49 74 19z m-1136 -172 c-2 -23 -8 -27
-33 -27 -24 0 -31 5 -33 24 -5 32 23 54 50 40 13 -7 18 -19 16 -37z m782 -377
c20 -24 3 -55 -30 -55 -20 0 -31 6 -35 20 -8 25 10 50 35 50 10 0 23 -7 30
-15z"/>
<path d="M1239 2431 c-21 -22 -29 -39 -29 -65 0 -32 -10 -45 -86 -118 l-85
-82 2 -176 2 -175 -26 -29 c-73 -79 20 -196 115 -145 26 14 48 67 41 102 -3
15 -16 36 -29 46 -24 19 -24 22 -24 186 l0 167 72 67 c61 56 76 66 103 63 23
-2 41 4 62 22 52 44 49 116 -6 149 -43 25 -78 21 -112 -12z m96 -51 c14 -43
-44 -67 -68 -28 -8 12 -7 21 2 32 19 23 58 20 66 -4z m-227 -632 c28 -28 1
-75 -37 -63 -25 8 -34 31 -21 56 12 21 40 25 58 7z"/>
<path d="M1495 2375 c-19 -18 -25 -35 -25 -67 0 -41 -4 -48 -90 -133 l-90 -90
0 -133 0 -134 -30 -28 c-23 -22 -30 -36 -30 -67 1 -55 27 -84 83 -90 39 -5 49
-2 71 20 36 36 36 98 1 133 -24 24 -25 31 -25 141 l0 115 81 89 c76 83 84 89
121 89 53 0 88 34 88 88 0 82 -98 125 -155 67z m95 -40 c26 -32 -13 -81 -47
-59 -35 22 -23 74 17 74 10 0 23 -7 30 -15z m-242 -587 c32 -32 -8 -80 -48
-58 -34 18 -19 70 20 70 9 0 21 -5 28 -12z"/>
<path d="M1689 2221 c-51 -52 -34 -128 35 -151 39 -13 79 -1 98 30 11 17 23
20 83 20 l71 0 21 -43 c20 -42 20 -43 2 -66 -11 -14 -19 -39 -19 -61 0 -30 6
-44 31 -64 41 -35 83 -34 120 3 38 38 40 91 4 126 -13 14 -28 25 -33 25 -4 0
-24 33 -42 73 -19 39 -36 74 -37 76 -1 2 -41 3 -88 2 -83 -2 -86 -1 -116 28
-41 42 -89 42 -130 2z m85 -34 c36 -26 -4 -84 -41 -61 -24 15 -27 38 -8 58 20
19 26 20 49 3z m326 -212 c28 -34 -24 -80 -55 -48 -18 18 -19 35 -3 51 16 16
43 15 58 -3z"/>
<path d="M779 2151 c-41 -41 -40 -92 1 -131 l30 -28 0 -149 0 -150 60 -231 61
-232 -86 -212 c-47 -116 -85 -216 -85 -222 0 -7 77 -50 170 -96 114 -57 170
-90 170 -101 0 -17 35 -53 62 -62 31 -11 87 12 103 43 23 44 19 78 -14 111
-33 32 -82 39 -114 14 -17 -12 -33 -7 -150 51 -72 36 -133 66 -134 68 -2 2 32
93 76 203 l80 200 -65 244 -64 244 0 141 c0 136 1 141 24 164 34 31 41 71 21
110 -29 56 -100 67 -146 21z m85 -34 c28 -20 18 -61 -16 -65 -36 -4 -53 26
-32 56 18 26 24 27 48 9z m350 -1463 c19 -18 19 -20 6 -45 -6 -10 -19 -19 -28
-19 -36 0 -55 43 -30 68 16 16 33 15 52 -4z"/>
<path d="M1513 2070 c-49 -20 -59 -104 -18 -146 19 -19 25 -35 25 -69 0 -34
-6 -50 -25 -69 -54 -54 -18 -156 55 -156 62 0 99 34 100 93 0 27 -7 45 -25 63
-19 19 -25 35 -25 69 0 34 6 50 25 69 18 18 25 36 25 65 0 67 -69 108 -137 81z
m72 -56 c19 -20 16 -43 -7 -58 -38 -23 -78 35 -42 61 23 17 29 16 49 -3z m5
-269 c10 -12 10 -21 2 -40 -7 -14 -16 -25 -22 -25 -23 0 -50 21 -50 38 0 39
46 56 70 27z"/>
<path d="M1160 1593 c-50 -19 -76 -70 -59 -120 21 -65 115 -82 158 -28 24 32
92 35 113 7 50 -72 168 -36 168 50 0 40 -15 65 -50 83 -42 22 -65 19 -103 -15
-27 -23 -44 -30 -76 -30 -28 0 -44 5 -48 15 -11 30 -68 51 -103 38z m60 -73
c15 -28 -22 -65 -50 -50 -19 10 -27 49 -13 63 14 14 53 6 63 -13z m259 1 c14
-26 -8 -54 -39 -49 -25 3 -36 27 -26 54 8 20 53 17 65 -5z"/>
<path d="M1671 1586 c-26 -15 -50 -51 -51 -79 0 -32 28 -74 59 -87 39 -16 88
-4 107 26 16 23 21 24 135 24 l119 0 0 -75 0 -75 -315 -2 -316 -3 0 -270 -1
-270 132 -3 132 -3 25 -29 c43 -52 125 -37 152 28 18 42 -7 98 -50 116 -39 16
-88 6 -108 -24 -12 -18 -24 -20 -112 -20 l-99 0 0 205 0 205 320 0 320 0 0
145 0 145 -160 0 c-135 0 -162 2 -167 15 -7 19 -55 45 -80 45 -10 -1 -29 -7
-42 -14z m80 -68 c10 -18 8 -24 -11 -40 -17 -13 -26 -15 -41 -8 -18 10 -26 50
-12 63 14 15 53 6 64 -15z m37 -690 c28 -28 1 -75 -37 -63 -11 3 -23 15 -26
26 -12 38 35 65 63 37z"/>
<path d="M1127 1346 c-35 -32 -43 -68 -23 -107 15 -31 14 -34 -39 -160 -30
-70 -55 -133 -55 -138 0 -6 18 -19 40 -29 33 -14 43 -24 51 -54 27 -100 179
-78 179 26 0 66 -60 107 -125 86 -22 -7 -41 -8 -46 -3 -5 5 8 47 31 101 22 51
40 96 40 101 0 5 15 15 34 21 69 22 88 100 37 151 -38 37 -87 39 -124 5z m87
-42 c20 -19 20 -38 2 -54 -23 -19 -61 -8 -64 18 -7 44 32 67 62 36z m7 -400
c19 -23 -1 -49 -37 -49 -30 0 -42 20 -30 51 7 19 50 18 67 -2z"/>
</g>
</svg>
